HIERARCHY
ROOT Hips
{
     OFFSET 1.88212 96.90440 -13.34250
     CHANNELS 6 Xposition Yposition Zposition Zrotation Xrotation Yrotation
     JOINT Spine
     {
          OFFSET 0.00000 11.89050 0.00000
          CHANNELS 3 Zrotation Xrotation Yrotation
          JOINT Spine1
          {
               OFFSET -0.00000 25.65740 0.12766
               CHANNELS 3 Zrotation Xrotation Yrotation
               JOINT HEad
               {
                    OFFSET 0.00000 8.73416 0.01134
                    CHANNELS 3 Zrotation Xrotation Yrotation
                    End Site
                    {
                         OFFSET -0.29000 12.77420 2.51395
                    }
               }
               JOINT LeftShoulder1
               {
                    OFFSET 8.99000 -0.36225 -0.22000
                    CHANNELS 3 Zrotation Xrotation Yrotation
                    JOINT LeftArm
                    {
                         OFFSET 10.28270 -0.00338 0.32212
                         CHANNELS 3 Zrotation Xrotation Yrotation
                         JOINT LeftForeArm
                         {
                              OFFSET 32.76690 0.09914 -1.42434
                              CHANNELS 3 Zrotation Xrotation Yrotation
                              JOINT LeftHand
                              {
                                   OFFSET 27.56430 0.08536 1.02216
                                   CHANNELS 3 Zrotation Xrotation Yrotation
                                   End Site
                                   {
                                        OFFSET 16.74430 -0.60000 1.50291
                                   }
                              }
                         }
                    }
               }
               JOINT RightShoulder
               {
                    OFFSET -8.99000 -0.36225 -0.22000
                    CHANNELS 3 Zrotation Xrotation Yrotation
                    JOINT RightArm
                    {
                         OFFSET -10.28270 -0.00338 0.32212
                         CHANNELS 3 Zrotation Xrotation Yrotation
                         JOINT RightForeArm
                         {
                              OFFSET -32.89710 0.09914 -1.42434
                              CHANNELS 3 Zrotation Xrotation Yrotation
                              JOINT RightHand
                              {
                                   OFFSET -27.49210 0.08536 1.02216
                                   CHANNELS 3 Zrotation Xrotation Yrotation
                                   End Site
                                   {
                                        OFFSET -16.63120 -0.60000 1.50291
                                   }
                              }
                         }
                    }
               }
          }
     }
     JOINT LeftUpLeg
     {
          OFFSET 8.94580 -8.66707 0.10165
          CHANNELS 3 Zrotation Xrotation Yrotation
          JOINT LeftLeg
          {
               OFFSET 0.00000 -44.42270 1.37270
               CHANNELS 3 Zrotation Xrotation Yrotation
               JOINT LeftFoot
               {
                    OFFSET -0.25355 -42.09240 -1.46059
                    CHANNELS 3 Zrotation Xrotation Yrotation
                    JOINT LeftToes
                    {
                         OFFSET -0.04000 -4.41509 8.49910
                         CHANNELS 3 Zrotation Xrotation Yrotation
                         End Site
                         {
                              OFFSET 0.08000 -0.04745 9.77979
                         }
                    }
               }
          }
     }
     JOINT RightUpLeg
     {
          OFFSET -8.94580 -8.66707 0.10165
          CHANNELS 3 Zrotation Xrotation Yrotation
          JOINT RightLeg
          {
               OFFSET 0.00000 -44.42270 1.37270
               CHANNELS 3 Zrotation Xrotation Yrotation
               JOINT RightFoot
               {
                    OFFSET 0.25355 -42.09240 -1.46059
                    CHANNELS 3 Zrotation Xrotation Yrotation
                    JOINT RightToes
                    {
                         OFFSET 0.04000 -4.41509 8.49910
                         CHANNELS 3 Zrotation Xrotation Yrotation
                         End Site
                         {
                              OFFSET -0.08000 -0.13745 9.77979
                         }
                    }
               }
          }
     }
}
MOTION
Frames: 17
Frame Time: 0.01667
127.71643 95.32529 534.32336 13.26787 5.97809 110.70602 -4.93291 23.67154 -4.31119 0.00183 0.00403 0.00461 1.54754 1.94519 6.01246 -1.65517 8.78242 4.47907 -148.46069 -65.89696 -118.63213 -39.76118 64.54667 -89.78431 21.46986 8.13330 -11.18261 15.49287 10.17785 1.43151 80.22015 -8.17967 70.54935 19.98770 28.29548 103.14911 16.72002 9.96556 7.30326 21.90053 -4.69947 -25.91722 -27.03417 0.84865 69.94731 0.72576 -0.00350 0.00803 2.73956 -9.16775 -55.15399 -16.68312 5.09454 8.34668 24.65920 15.86599 -32.06310 53.39278 -0.01012 -0.01377 -63.22338 -42.41106 33.03779 
127.80451 95.30645 534.12909 13.26196 5.79284 110.27585 -4.44463 23.66647 -4.33216 0.00357 0.00447 0.00520 0.91547 2.54016 6.78857 -1.69668 8.75655 5.49107 -152.13156 -65.38951 -123.24606 -44.35292 64.55421 -89.01810 19.80871 8.84199 -8.71929 14.40452 10.87673 4.94839 79.59379 -11.23536 72.86694 21.25742 28.22467 101.49228 14.92560 9.85112 6.57345 21.64577 -5.25962 -24.25788 -26.80012 2.85309 66.10162 -0.17963 -0.02340 0.00556 2.37524 -8.76071 -52.60171 -16.36824 4.68337 8.51368 23.73507 17.69284 -31.02193 50.32376 -0.00899 -0.03086 -61.21592 -36.43771 24.09767 
127.88010 95.20704 534.00397 13.18385 5.56683 109.88889 -3.89859 23.62821 -4.33355 0.00600 0.00495 0.00561 0.03171 3.27815 7.94049 -1.85295 8.68511 6.44328 -157.03003 -64.45866 -129.82384 -51.23138 64.39876 -85.65690 18.06286 9.48211 -6.00776 13.56058 11.36438 7.91992 77.96104 -13.68778 75.54929 22.88850 28.29285 99.60209 12.36254 9.88280 5.72836 21.29382 -5.79852 -22.26896 -26.25898 5.59526 61.35750 -1.57275 -0.04352 -0.00163 2.19775 -8.52436 -48.63738 -15.97429 4.09205 8.59262 22.54720 20.23013 -29.81108 44.17554 -0.02955 -0.07518 -55.20911 -29.18731 14.38284 
127.98140 95.09843 533.94415 12.92237 5.24330 109.57219 -3.27159 23.48499 -4.18013 0.00572 0.01332 0.01714 -1.59265 4.47666 10.30167 -1.66126 8.47375 6.99702 -160.45699 -63.55988 -134.27231 -56.02361 63.63220 -82.93082 16.90415 10.16252 -3.35177 12.72587 11.16939 9.27124 76.57990 -15.20612 77.23279 24.82157 32.54296 98.54136 6.27347 10.79790 4.21448 20.69643 -6.76457 -19.15924 -24.80330 9.98093 53.84984 -3.91275 -0.11075 -0.00876 2.74652 -8.36925 -41.34817 -15.57223 3.20372 8.48488 20.62435 25.00933 -28.33689 32.92760 -0.15171 -0.24866 -44.85360 -19.41170 3.37542 
128.13086 95.03753 533.96106 12.53264 4.84473 109.30830 -2.58140 23.25695 -3.88498 0.00507 0.01232 0.01558 -3.93507 6.03025 13.78841 -1.42249 8.16224 7.31832 -162.74405 -62.88412 -137.28110 -59.35522 62.66603 -80.90408 15.19202 10.07467 -2.39312 11.90184 10.78191 10.29041 75.45463 -16.81744 78.37543 26.79240 34.46588 97.41350 2.75593 11.38313 3.42211 19.91183 -8.16368 -15.06876 -22.00010 15.30498 43.74628 -6.88995 -0.17871 -0.03133 3.38569 -8.86028 -33.59549 -15.15477 2.03156 8.24077 18.04528 31.07706 -26.86109 25.51955 -0.15203 -0.21611 -32.41325 -27.10845 5.62879 
128.33153 95.02671 534.07080 12.05926 4.39592 109.08674 -1.85168 22.95341 -3.47164 0.00383 0.00963 0.01231 -6.97313 7.79530 18.32402 -1.24296 7.76618 7.44485 -164.33597 -62.55011 -139.39902 -61.68431 61.66887 -79.53022 14.08391 10.22712 -1.12543 11.22142 10.27756 10.89923 74.46719 -18.16635 79.06879 28.33941 35.31266 96.44790 0.99096 11.79255 2.85684 18.97404 -9.92192 -10.13209 -17.37684 20.79937 30.99272 -10.34271 -0.23975 -0.05847 4.56108 -9.64735 -24.33533 -14.69975 0.60778 7.90056 14.90019 37.85519 -25.58115 17.31496 -0.20474 -0.27026 -21.68389 -11.58701 -4.39546 
128.56613 95.05945 534.30231 11.53558 3.91927 108.90221 -1.10442 22.57737 -2.96766 0.00268 0.00682 0.00897 -10.67362 9.60784 23.87246 -1.13618 7.31668 7.41355 -165.59972 -62.60477 -140.99010 -63.34990 60.79805 -78.76426 12.71043 10.08676 -0.73712 10.67913 9.71207 11.15510 73.59062 -19.14478 79.37843 29.32591 35.73745 95.74588 -0.19103 11.96730 2.63296 17.97744 -11.64249 -5.56176 -11.05414 24.95159 16.64530 -14.22449 -0.29264 -0.08805 6.27035 -10.70236 -14.43779 -14.18258 -1.01751 7.49821 11.26164 44.83888 -24.65456 9.68546 -0.23777 -0.27516 -8.15045 -23.72560 1.52797 
128.79071 95.09274 534.68512 10.97869 3.43095 108.74875 -0.36579 22.12588 -2.39343 0.00150 0.00441 0.00604 -14.15778 11.02361 28.83226 -1.07429 6.84739 7.25737 -166.77872 -63.03154 -142.30704 -64.57717 60.09428 -78.48923 11.76745 10.17371 -0.01856 10.22455 9.12343 11.15115 72.83873 -19.74813 79.40125 29.77291 36.09242 95.30489 -0.83365 12.04087 2.49303 16.97909 -13.19985 -1.39565 -4.98833 27.25455 3.80227 -17.11792 -0.18085 -0.08452 8.09462 -11.79886 -5.83779 -13.69307 -2.70766 7.05954 7.54221 49.88297 -22.95072 17.28795 0.04215 0.18503 -12.64389 -5.15162 -5.71400 
128.95265 95.10340 535.23309 10.39557 2.94426 108.61736 0.33886 21.59672 -1.76066 0.00034 0.00278 0.00382 -17.33678 12.13657 33.18765 -1.04071 6.39076 7.01320 -167.99438 -63.77540 -143.50586 -65.50189 59.56733 -78.60103 10.72376 10.12476 0.24120 9.80125 8.54469 10.99288 72.22247 -20.05817 79.25018 29.80569 36.48274 95.05643 -1.45223 11.99817 2.50663 16.08269 -14.54077 2.36640 0.52876 28.17713 -7.28315 -19.31549 -0.10412 -0.05716 9.81907 -12.52108 1.39924 -13.33763 -4.34834 6.60062 3.83671 53.68814 -20.73117 16.28164 -0.03245 0.00555 -8.46186 -14.00281 -0.40283 
129.01472 95.08209 535.94995 9.78858 2.47500 108.49700 0.98211 20.99530 -1.07364 -0.00093 0.00201 0.00238 -20.14857 13.02604 36.93183 -1.03740 5.97711 6.71307 -169.26070 -64.75863 -144.65730 -66.18362 59.18853 -78.99233 9.98587 10.18430 0.74546 9.35921 8.00804 10.76948 71.74706 -20.17356 79.04829 29.57853 36.89579 94.90633 -1.89858 11.90457 2.54277 15.36880 -15.66737 5.74300 5.30935 28.05825 -16.47576 -20.99349 -0.05696 -0.03525 11.21098 -12.71928 7.40572 -13.19545 -5.84626 6.13259 0.22332 56.53492 -18.13120 18.77406 0.00806 0.03226 -8.28287 -9.82203 -2.34221 
128.96024 95.06383 536.84998 9.15877 2.04933 108.38142 1.52327 20.33489 -0.33993 -0.00255 0.00127 0.00049 -22.55181 13.75929 40.07349 -1.09361 5.63737 6.37776 -170.50989 -65.89967 -145.75243 -66.62752 58.95227 -79.59347 9.24386 10.11029 0.97874 8.84824 7.54721 10.40806 71.43642 -20.06504 78.95100 29.23845 37.37196 95.09142 -2.42783 11.47492 2.85166 14.85001 -16.74211 8.74666 9.95097 27.28940 -19.29494 -9.08276 -0.16460 0.06408 -2.70496 -11.47984 7.12953 -13.31361 -7.14834 5.66314 -3.19871 58.60970 -15.32996 19.21144 -0.00589 0.00907 -6.30630 -11.58010 -1.44890 
128.79498 95.04445 537.94427 8.51506 1.67871 108.26233 1.93622 19.64084 0.44248 -0.00379 0.00145 -0.00021 -24.52340 14.38528 42.62079 -1.22260 5.39054 6.03967 -171.58717 -67.13108 -146.66560 -66.83652 58.83593 -80.34044 8.73691 10.02773 1.33553 8.32099 7.19774 10.03831 71.19792 -19.88102 78.94125 28.85471 37.86078 95.42133 -2.75347 11.22846 2.44690 14.43206 -17.74316 11.36545 13.49505 26.41714 -19.15451 3.21440 -0.38479 -0.02607 -16.78807 -9.66198 4.89210 -13.68793 -8.20539 5.20683 -6.28503 59.94410 -12.50705 20.44662 0.00080 0.00973 -5.52955 -10.79088 -2.60306 
128.53888 94.97120 539.21667 7.85977 1.40709 108.13941 2.16464 18.94194 1.27001 -0.00478 0.00217 -0.00038 -26.05431 14.93970 44.59203 -1.42292 5.24832 5.71347 -172.34349 -68.40874 -147.25006 -66.82121 58.82685 -81.19507 8.27596 9.81571 1.47304 7.82246 6.97717 9.69787 70.97103 -19.65581 78.99909 28.45345 38.34753 95.83825 -3.14427 10.80158 2.36190 14.11995 -18.84165 13.63276 16.53730 26.50832 -17.50130 -15.87852 0.80078 -0.03376 0.57055 -9.72288 1.22240 -14.04474 -8.94420 4.82913 -6.15420 59.65972 -12.43240 20.19919 0.01046 0.00355 -5.33862 -11.91127 -3.72587 
128.21301 94.76903 540.63647 7.19880 1.25915 108.02352 2.17894 18.26050 2.12618 -0.00552 0.00329 -0.00036 -27.14667 15.44423 46.01308 -1.65952 5.21375 5.39774 -172.66888 -69.70553 -147.36603 -66.60458 58.90625 -82.12267 7.98505 9.57673 1.62094 7.40662 6.88652 9.38573 70.70736 -19.36744 79.09904 28.03253 38.81272 96.25555 -3.47675 10.50437 1.86524 14.39120 -20.77364 14.84424 18.78354 29.38935 -14.49104 -2.41423 -0.53932 0.12209 -14.58979 -8.36442 -3.40085 -14.30088 -9.35011 4.55552 -3.70817 58.04815 -14.43805 18.77759 0.01220 0.01304 -8.06024 -26.40969 -16.80734 
127.82812 94.40923 542.18164 6.54493 1.23057 107.93063 1.98447 17.61289 2.98598 -0.00567 0.00443 -0.00049 -26.82378 15.84219 45.41318 -1.85416 5.27517 5.07668 -172.52458 -71.01100 -146.91600 -66.21783 59.05268 -83.10775 7.72536 9.29003 1.55991 7.14310 6.90656 9.07109 70.36314 -18.97054 79.21479 27.59039 39.23025 96.63328 -3.93278 10.15741 1.66102 15.08745 -23.62336 15.22180 20.32930 34.94327 -11.27303 -19.07450 0.78088 -0.40877 0.52933 -10.98840 -7.68511 -14.48707 -9.46481 4.37052 -0.57474 55.59019 -17.01894 16.81557 0.01373 0.02347 -7.01328 -21.99349 -11.95547 
127.38957 93.90012 543.81696 5.89495 1.24080 107.87186 1.66589 16.97712 3.82353 -0.00505 0.00546 -0.00090 -25.22956 16.06409 43.05303 -1.92057 5.41057 4.72221 -171.93600 -72.32138 -145.86586 -65.68721 59.23611 -84.14462 7.54962 9.04074 1.45889 7.10085 7.00637 8.72344 69.90195 -18.42978 79.32172 27.12587 39.57172 96.94165 -4.41355 9.94758 1.28070 16.16486 -27.43669 15.00433 21.41885 42.99979 -8.63080 -5.04670 -0.50038 0.35595 -15.28105 -12.00747 -12.54405 -14.64588 -9.40536 4.22566 2.30320 52.76835 -19.24492 14.75352 0.01274 0.02603 -13.38516 -39.58863 -16.92506 
126.91673 93.27985 545.48291 5.28314 1.25785 107.83689 1.28281 16.38293 4.62367 -0.00370 0.00630 -0.00172 -22.50510 15.93765 39.20707 -1.80384 5.59761 4.30256 -170.96819 -73.63601 -144.24068 -65.02677 59.43085 -85.24528 7.36904 8.81984 1.22914 7.32198 7.15529 8.30969 69.30692 -17.72662 79.40183 26.64001 39.81719 97.18487 -4.96948 9.77648 1.11803 17.14723 -31.19471 14.79159 22.32530 51.73073 -6.99807 -20.67885 0.51004 -0.67826 -1.02441 -16.20638 -15.23162 -14.83989 -9.24236 4.09731 4.71381 49.96425 -20.85300 12.85662 0.01068 0.02266 -11.47363 -33.67049 -15.64840 
